<svg width="2245" height="475" viewBox="0 0 2245 475" fill="none" xmlns="http://www.w3.org/2000/svg">
<circle cx="237.131" cy="237.131" r="237.131" fill="white"/>
<path d="M293.64 452.494C290.679 463.44 280.539 470.219 280.539 470.219C280.539 470.219 275.199 459.251 278.159 448.305C281.12 437.36 291.259 430.58 291.259 430.58C291.259 430.58 296.6 441.548 293.64 452.494Z" fill="#141417"/>
<path d="M188.815 448.901C195.007 458.399 193.31 470.48 193.31 470.48C193.31 470.48 181.574 467.161 175.382 457.662C169.19 448.164 170.887 436.083 170.887 436.083C170.887 436.083 182.623 439.403 188.815 448.901Z" fill="#141417"/>
<path d="M288.374 449.25C281.215 458.041 281.626 470.233 281.626 470.233C281.626 470.233 293.647 468.173 300.808 459.382C307.967 450.591 307.556 438.399 307.556 438.399C307.556 438.399 295.535 440.459 288.374 449.25Z" fill="#141417"/>
<path d="M183.677 450.094C184.166 461.423 192.573 470.26 192.573 470.26C192.573 470.26 200.187 460.73 199.698 449.401C199.208 438.072 190.801 429.235 190.801 429.235C190.801 429.235 183.187 438.765 183.677 450.094Z" fill="#141417"/>
<path d="M314.754 153.367C315.46 164.684 324.035 173.359 324.035 173.359C324.035 173.359 331.465 163.685 330.759 152.368C330.052 141.05 321.478 132.376 321.478 132.376C321.478 132.376 314.048 142.049 314.754 153.367Z" fill="#141417"/>
<path d="M390.764 97.3526C383.213 105.809 383.072 118.007 383.072 118.007C383.072 118.007 395.174 116.495 402.725 108.038C410.276 99.5819 410.417 87.3836 410.417 87.3836C410.417 87.3836 398.315 88.8961 390.764 97.3526Z" fill="#141417"/>
<path d="M425.556 219.794C415.966 225.842 412.469 237.529 412.469 237.529C412.469 237.529 424.519 239.411 434.108 233.363C443.698 227.316 447.196 215.629 447.196 215.629C447.196 215.629 435.146 213.747 425.556 219.794Z" fill="#141417"/>
<path d="M230.601 101.992C233.494 112.956 243.591 119.798 243.591 119.798C243.591 119.798 248.999 108.864 246.107 97.9C243.216 86.9361 233.118 80.0939 233.118 80.0939C233.118 80.0939 227.71 91.028 230.601 101.992Z" fill="#141417"/>
<path d="M139.375 115.581C142.774 126.399 153.179 132.763 153.179 132.763C153.179 132.763 158.073 121.589 154.674 110.772C151.275 99.9538 140.87 93.5894 140.87 93.5894C140.87 93.5894 135.976 104.763 139.375 115.581Z" fill="#141417"/>
<path d="M40.7734 230.935C46.9309 240.456 58.6545 243.818 58.6545 243.818C58.6545 243.818 60.3955 231.744 54.2386 222.223C48.081 212.702 36.3574 209.339 36.3574 209.339C36.3574 209.339 34.6165 221.414 40.7734 230.935Z" fill="#141417"/>
<path d="M123.89 229.369C148.663 242.285 181.069 253.436 190.775 256.668C183.375 254.74 161.833 252.144 128.457 272.973C86.5207 299.137 24.6618 282.898 24.6618 282.898C24.6618 282.898 56.8404 295.885 78.0163 297.126C99.1923 298.373 149.217 268.405 167.899 278.372C186.587 288.339 195.304 275.877 202.781 300.8C210.251 325.718 223.95 393.822 208.172 432.032L192.4 470.237C192.4 470.237 213.947 474.5 239.737 474.5C259.445 474.5 282.316 470.121 282.316 470.121C282.316 470.121 249.693 383.855 267.549 330.701C277.545 300.933 293.697 282.558 300.311 273.67C306.924 264.783 325.932 259.122 329.414 256.668C335.285 252.53 291.352 261.368 286.647 263.422C286.647 263.422 308.238 242.241 315.293 242.241C322.354 242.241 355.572 238.92 366.362 227.706C366.362 227.706 382.967 214.836 409.13 243.488C423.517 267.959 441.302 261.811 443.673 261.082C446.756 260.133 470.232 250.411 470.232 250.411C470.232 250.411 443.436 256.102 434.188 256.102C422.094 256.102 417.351 234.286 404.147 224.386C393.446 216.362 379.885 210.336 358.892 217.739L372.572 185.476L376.32 176.637L376.326 176.625C376.326 176.625 380.899 115.992 389.617 111.84C398.334 107.682 392.936 96.89 409.13 94.8109C409.13 94.8109 389.201 92.316 385.466 106.025C381.724 119.728 355.982 193.654 355.982 193.654C355.982 193.654 340.21 225.211 322.769 217.739C305.328 210.261 320.662 177.721 329.414 168.321C338.166 158.921 359.308 154.612 359.308 154.612C359.308 154.612 336.884 153.78 323.185 166.658C309.485 179.529 308.654 221.06 308.654 221.06C308.654 221.06 274.194 226.043 265.886 244.735C265.886 244.735 260.489 228.122 270.869 218.155C273.464 215.66 276.191 211.326 278.818 206.229C288.774 186.666 293.002 165.112 289.739 143.404C288.196 132.782 289.305 123.972 290.369 117.112C292.215 111.712 300.894 103.373 305.291 94.6471C310.311 85.9276 307.823 58.207 307.823 58.207C307.823 58.207 305.291 86.5559 298.016 96.512C289.569 105.456 286.374 107.257 283.327 116.408C281.415 122.782 283.327 160.427 271.7 182.024C260.073 203.621 237.656 227.706 238.897 243.488V252.623C238.897 252.623 219.286 232.28 220.948 224.386C222.611 216.498 219.384 194.479 235.162 183.271C250.94 172.057 261.32 154.196 250.108 128.447C243.803 113.963 241.045 106.183 239.835 102.144L246.373 130.111C246.373 130.111 250.524 158.764 238.897 168.731C238.865 168.756 238.84 168.781 238.809 168.806C227.2 178.786 211.914 196.974 211.914 196.974L211.958 196.174L216.975 138.011L195.456 83.2673C195.456 83.2673 212.438 137.797 209.861 145.124C206.525 154.613 203.177 163.363 203.177 163.363C203.177 163.363 179.333 141.046 157.017 131.602C132.453 121.207 102.271 62.5864 102.271 62.5864C99.7511 61.3264 121.115 118.372 147.569 133.492C163.809 142.774 99.2817 144.816 109.36 147.021C109.36 147.021 148.514 148.612 157.017 142.774C177.488 153.337 197.792 174.13 199.039 191.575C200.286 209.02 199.039 232.274 199.039 232.274C199.039 232.274 140.084 222.307 126.385 195.311C112.679 168.321 63.6883 150.101 63.6883 150.101C63.6883 150.101 102.166 178.812 109.36 190.327C113.861 197.533 118.077 210.261 118.077 210.261C118.077 210.261 82.37 211.093 63.6883 232.274C45.0003 253.455 1.89714 257.605 1.89714 257.605C1.89714 257.605 27.8957 258.752 34.1943 257.605C55.0113 253.813 72.8213 238.704 72.8213 238.704C72.8213 238.704 94.4129 214.003 123.89 229.369Z" fill="#141417"/>
<path d="M886.782 133.98C886.796 162.148 870.009 171.99 849.298 172C848.817 172 848.338 171.995 847.861 171.985C846.901 171.964 845.951 171.921 845.012 171.855C826.318 170.544 811.789 160.212 811.776 134.016C811.763 106.907 846.489 72.678 849.094 70.147C849.096 70.147 849.096 70.147 849.098 70.145C849.197 70.048 849.248 70 849.248 70C849.248 70 886.769 105.814 886.782 133.98Z" fill="white"/>
<path d="M631.32 249.33C642.893 251.397 652.71 257.493 660.77 267.62C668.83 277.747 672.86 289.217 672.86 302.03C672.86 312.983 669.966 322.903 664.18 331.79C658.6 340.47 650.436 347.393 639.69 352.56C628.943 357.52 616.44 360 602.18 360H516V144.55H598.15C612.823 144.55 625.43 147.03 635.97 151.99C646.51 156.95 654.466 163.667 659.84 172.14C665.213 180.407 667.9 189.707 667.9 200.04C667.9 212.44 664.593 222.773 657.98 231.04C651.366 239.307 642.48 245.403 631.32 249.33ZM551.34 235.07H595.05C606.623 235.07 615.613 232.487 622.02 227.32C628.633 221.947 631.94 214.3 631.94 204.38C631.94 194.667 628.633 187.123 622.02 181.75C615.613 176.17 606.623 173.38 595.05 173.38H551.34V235.07ZM599.08 331.17C611.066 331.17 620.47 328.277 627.29 322.49C634.11 316.703 637.52 308.643 637.52 298.31C637.52 287.77 633.903 279.4 626.67 273.2C619.436 267 609.826 263.9 597.84 263.9H551.34V331.17H599.08ZM746.603 213.99C751.77 205.31 758.59 198.593 767.063 193.84C775.743 188.88 785.973 186.4 797.753 186.4V222.98H788.763C774.917 222.98 764.377 226.493 757.143 233.52C750.117 240.547 746.603 252.74 746.603 270.1V360H711.263V189.19H746.603V213.99ZM848.218 166.56C841.811 166.56 836.438 164.39 832.098 160.05C827.758 155.71 825.588 150.337 825.588 143.93C825.588 137.523 827.758 132.15 832.098 127.81C836.438 123.47 841.811 121.3 848.218 121.3C854.418 121.3 859.688 123.47 864.028 127.81C868.368 132.15 870.538 137.523 870.538 143.93C870.538 150.337 868.368 155.71 864.028 160.05C859.688 164.39 854.418 166.56 848.218 166.56ZM865.578 189.19V360H830.238V189.19H865.578ZM900.196 273.82C900.196 256.667 903.709 241.477 910.736 228.25C917.969 215.023 927.683 204.793 939.876 197.56C952.276 190.12 965.916 186.4 980.796 186.4C994.229 186.4 1005.91 189.087 1015.83 194.46C1025.95 199.627 1034.01 206.137 1040.01 213.99V189.19H1075.66V360H1040.01V334.58C1034.01 342.64 1025.85 349.357 1015.52 354.73C1005.18 360.103 993.403 362.79 980.176 362.79C965.503 362.79 952.069 359.07 939.876 351.63C927.683 343.983 917.969 333.443 910.736 320.01C903.709 306.37 900.196 290.973 900.196 273.82ZM1040.01 274.44C1040.01 262.66 1037.53 252.43 1032.57 243.75C1027.81 235.07 1021.51 228.457 1013.66 223.91C1005.8 219.363 997.329 217.09 988.236 217.09C979.143 217.09 970.669 219.363 962.816 223.91C954.963 228.25 948.556 234.76 943.596 243.44C938.843 251.913 936.466 262.04 936.466 273.82C936.466 285.6 938.843 295.933 943.596 304.82C948.556 313.707 954.963 320.527 962.816 325.28C970.876 329.827 979.349 332.1 988.236 332.1C997.329 332.1 1005.8 329.827 1013.66 325.28C1021.51 320.733 1027.81 314.12 1032.57 305.44C1037.53 296.553 1040.01 286.22 1040.01 274.44ZM1208.25 186.4C1221.69 186.4 1233.67 189.19 1244.21 194.77C1254.96 200.35 1263.33 208.617 1269.32 219.57C1275.32 230.523 1278.31 243.75 1278.31 259.25V360H1243.28V264.52C1243.28 249.227 1239.46 237.55 1231.81 229.49C1224.17 221.223 1213.73 217.09 1200.5 217.09C1187.28 217.09 1176.74 221.223 1168.88 229.49C1161.24 237.55 1157.41 249.227 1157.41 264.52V360H1122.07V189.19H1157.41V208.72C1163.2 201.693 1170.54 196.217 1179.42 192.29C1188.52 188.363 1198.13 186.4 1208.25 186.4ZM1358.73 331.48H1431.58V360H1323.39V144.55H1358.73V331.48ZM1617.69 270.41C1617.69 276.817 1617.27 282.603 1616.45 287.77H1485.94C1486.97 301.41 1492.03 312.363 1501.13 320.63C1510.22 328.897 1521.38 333.03 1534.61 333.03C1553.62 333.03 1567.05 325.073 1574.91 309.16H1613.04C1607.87 324.867 1598.47 337.783 1584.83 347.91C1571.39 357.83 1554.65 362.79 1534.61 362.79C1518.28 362.79 1503.61 359.173 1490.59 351.94C1477.77 344.5 1467.65 334.167 1460.21 320.94C1452.97 307.507 1449.36 292.007 1449.36 274.44C1449.36 256.873 1452.87 241.477 1459.9 228.25C1467.13 214.817 1477.15 204.483 1489.97 197.25C1502.99 190.017 1517.87 186.4 1534.61 186.4C1550.73 186.4 1565.09 189.913 1577.7 196.94C1590.3 203.967 1600.12 213.887 1607.15 226.7C1614.17 239.307 1617.69 253.877 1617.69 270.41ZM1580.8 259.25C1580.59 246.23 1575.94 235.793 1566.85 227.94C1557.75 220.087 1546.49 216.16 1533.06 216.16C1520.86 216.16 1510.43 220.087 1501.75 227.94C1493.07 235.587 1487.9 246.023 1486.25 259.25H1580.8ZM1881.87 189.19L1828.86 360H1791.66L1757.25 233.83L1722.84 360H1685.64L1632.32 189.19H1668.28L1703.93 326.52L1740.2 189.19H1777.09L1811.81 325.9L1847.15 189.19H1881.87ZM2062.04 189.19L1957.26 440.29H1920.68L1955.4 357.21L1888.13 189.19H1927.5L1975.55 319.39L2025.46 189.19H2062.04ZM2174.89 186.4C2188.32 186.4 2200.31 189.19 2210.85 194.77C2221.59 200.35 2229.96 208.617 2235.96 219.57C2241.95 230.523 2244.95 243.75 2244.95 259.25V360H2209.92V264.52C2209.92 249.227 2206.09 237.55 2198.45 229.49C2190.8 221.223 2180.36 217.09 2167.14 217.09C2153.91 217.09 2143.37 221.223 2135.52 229.49C2127.87 237.55 2124.05 249.227 2124.05 264.52V360H2088.71V189.19H2124.05V208.72C2129.83 201.693 2137.17 196.217 2146.06 192.29C2155.15 188.363 2164.76 186.4 2174.89 186.4Z" fill="white"/>
</svg>
